<svg xmlns="http://www.w3.org/2000/svg" viewBox="0 0 64 64" width="64" height="64">
  <defs>
    <linearGradient id="shieldGrad" x1="0%" y1="0%" x2="100%" y2="100%">
      <stop offset="0%" stop-color="#e63946"/>
      <stop offset="100%" stop-color="#b7094c"/>
    </linearGradient>
  </defs>
  <!-- Outer Shield Border -->
  <path d="M32 4 L56 12 C56 36 44 52 32 60 C20 52 8 36 8 12 Z" fill="#111827" />
  <!-- Inner Shield -->
  <path d="M32 7 L53 14 C53 35 42 49 32 56 C22 49 11 35 11 14 Z" fill="url(#shieldGrad)" stroke="#111827" stroke-width="2"/>
  <!-- Gold Comic Star -->
  <polygon points="32,15 37,27 49,27 39,35 43,47 32,40 21,47 25,35 15,27 27,27" fill="#ffb703" stroke="#111827" stroke-width="2" stroke-linejoin="round"/>
  <!-- Central Lightning Accent -->
  <polygon points="34,18 27,33 33,33 30,44 40,29 33,29" fill="#ffffff" stroke="#111827" stroke-width="1.5" stroke-linejoin="round"/>
</svg>
